<svg width="570" height="480" viewBox="0 0 570 480" fill="none" xmlns="http://www.w3.org/2000/svg">
<path d="M569.834 9.48717L562.035 0.170898L0.165228 470.521L7.96402 479.837L569.834 9.48717Z" fill="black"/>
<path d="M281.29 6.68164C144.607 6.68164 33.8047 111.148 33.8047 240.017C33.8047 368.885 144.607 473.352 281.29 473.352C417.973 473.352 528.776 368.885 528.776 240.017C528.776 111.148 417.973 6.68164 281.29 6.68164ZM281.168 458.173C179.046 458.173 96.2624 360.104 96.2624 239.128C96.2624 118.151 179.046 20.0823 281.168 20.0823C383.289 20.0823 466.073 118.151 466.073 239.128C466.073 360.104 383.289 458.173 281.168 458.173Z" fill="black"/>
</svg>
