<svg width="24" height="20" viewBox="0 0 24 20" fill="none" xmlns="http://www.w3.org/2000/svg">
<path d="M12.5481 18.7178L7.5253 14.4549C7.31246 14.274 7.04229 14.1747 6.76297 14.1745H3.7078C3.08282 14.1745 2.48344 13.9262 2.04152 13.4843C1.59959 13.0424 1.35132 12.443 1.35132 11.818V8.18198C1.35132 7.557 1.59959 6.95762 2.04152 6.51569C2.48344 6.07377 3.08282 5.8255 3.7078 5.8255H6.76415C7.04347 5.82533 7.31364 5.72595 7.52647 5.54507L12.5481 1.27984C12.7195 1.13441 12.929 1.04103 13.1517 1.01075C13.3744 0.980457 13.6012 1.01452 13.8052 1.1089C14.0092 1.20329 14.182 1.35407 14.3031 1.54344C14.4242 1.73281 14.4886 1.95288 14.4887 2.17766V17.8223C14.4886 18.0471 14.4242 18.2672 14.3031 18.4566C14.182 18.6459 14.0092 18.7967 13.8052 18.8911C13.6012 18.9855 13.3744 19.0195 13.1517 18.9893C12.929 18.959 12.7195 18.8656 12.5481 18.7202V18.7178Z" stroke="white" stroke-width="1.5" stroke-linejoin="round"/>
<path d="M17.7452 5.92447C18.3108 6.33685 18.7821 6.93068 19.1096 7.64705C19.436 8.36225 19.6092 9.17288 19.6092 9.99882C19.6092 10.8236 19.436 11.6366 19.1096 12.3506C18.7821 13.0658 18.312 13.6608 17.7452 14.0732M20.1441 3.42896C21.0573 4.09466 21.8172 5.05257 22.3439 6.20607C22.8706 7.35839 23.1486 8.66741 23.1486 9.99882C23.1486 11.3302 22.8706 12.6381 22.3439 13.7928C21.8161 14.9451 21.0573 15.903 20.1441 16.5687" stroke="white" stroke-width="1.5" stroke-linecap="round" stroke-linejoin="round"/>
</svg>
